<svg width="455" height="455" viewBox="0 0 455 455" fill="none" xmlns="http://www.w3.org/2000/svg">
<rect width="455" height="455" rx="79" fill="#020202"/>
<path d="M227.66 64C137.28 64 64 137.27 64 227.66C64 318.05 137.27 391.32 227.66 391.32C318.05 391.32 391.32 318.05 391.32 227.66C391.32 137.27 318.04 64 227.66 64ZM286.37 133.5L287.05 130.15C287.33 128.78 289.29 128.78 289.57 130.15L290.25 133.5C292.1 142.61 299.22 149.74 308.34 151.59L311.69 152.27C313.06 152.55 313.06 154.51 311.69 154.79L308.34 155.47C299.23 157.32 292.1 164.44 290.25 173.56L289.57 176.91C289.29 178.28 287.33 178.28 287.05 176.91L286.37 173.56C284.52 164.45 277.4 157.32 268.28 155.47L264.93 154.79C263.56 154.51 263.56 152.55 264.93 152.27L268.28 151.59C277.39 149.74 284.52 142.62 286.37 133.5ZM272.93 210.15L253.02 215.47C245.01 217.61 238.75 223.87 236.61 231.88L231.29 251.79C230.9 253.26 228.81 253.26 228.42 251.79L223.1 231.88C220.96 223.87 214.7 217.61 206.69 215.47L186.78 210.15C185.31 209.76 185.31 207.67 186.78 207.28L206.69 201.96C214.7 199.82 220.96 193.56 223.1 185.55L228.42 165.64C228.81 164.17 230.9 164.17 231.29 165.64L236.61 185.55C238.75 193.56 245.01 199.82 253.02 201.96L272.93 207.28C274.4 207.67 274.4 209.76 272.93 210.15ZM348.85 287.09C333.76 332.86 286.58 364.04 239.05 366.2C208.48 367.98 177.44 358.95 152.43 341.32C80.41 290.67 71.11 186.04 135.03 124.84C163.2 97.84 204 83.93 242.58 90.52C254.67 92.51 266.41 96.5 277.01 102.41C268.79 101.95 260.99 101.9 252.95 102.53C217.81 105.29 183.9 122.43 162.64 150.32C137.16 183.09 131.5 228.64 149.06 265.91C151.45 266.55 153.85 267.14 156.21 267.71C216.61 281.53 294.57 284.63 338.85 233.79C346.19 225.33 352.21 215.61 356.84 205.41C359.28 200.25 361.19 194.84 363.04 189.38C361.98 196.47 360.6 203.7 358.48 210.62C352.24 232.21 339.87 251.92 323.08 266.92C286.74 298.71 237.45 310.16 189.29 312.22C238.56 344.23 304.63 334.57 348.84 287.1L348.85 287.09Z" fill="white"/>
</svg>
