<svg width="1282" height="374" viewBox="0 0 1282 374" fill="none" xmlns="http://www.w3.org/2000/svg">
<path d="M604.56 8.63744V135.997C604.56 146.347 599.38 151.527 589.03 151.527H571.84C567.14 151.527 563.66 150.427 561.38 148.217C559.1 146.007 556.79 142.767 554.44 138.487L523.38 89.4074C521.44 85.8175 519.68 81.9174 518.1 77.7074C516.51 73.4974 515.1 69.2474 513.85 64.9674H512.4C513.09 69.2474 513.61 73.6374 513.95 78.1174C514.29 82.6074 514.47 86.9174 514.47 91.0574V151.527H473.05V24.1674C473.05 13.8174 478.23 8.63744 488.58 8.63744H505.77C510.46 8.63744 513.91 9.74744 516.12 11.9474C518.33 14.1574 520.68 17.4074 523.16 21.6774L552.98 68.4774C554.91 71.9274 556.81 75.7274 558.67 79.8674C560.53 84.0074 562.29 88.3574 563.95 92.9174H565.4C564.85 88.4974 564.4 84.1474 564.05 79.8674C563.7 75.5874 563.53 71.3074 563.53 67.0274L563.32 8.62744H604.53L604.56 8.63744Z" fill="white"/>
<path d="M658.4 7.80737C666.68 7.80737 675.21 7.84737 683.98 7.90737C692.75 7.97737 701.34 8.18737 709.76 8.52737C718.18 8.87737 725.84 9.52737 732.75 10.4974L730.68 42.1774H678.29C675.67 42.1774 673.6 42.8674 672.08 44.2474C670.56 45.6274 669.8 47.4274 669.8 49.6274V110.507C669.8 112.717 670.56 114.517 672.08 115.887C673.6 117.267 675.67 117.957 678.29 117.957H730.68L732.75 149.637C725.84 150.467 718.18 151.087 709.76 151.497C701.34 151.907 692.74 152.147 683.98 152.217C675.21 152.287 666.69 152.317 658.4 152.317C648.6 152.317 640.55 149.317 634.27 143.307C627.99 137.297 624.85 129.467 624.85 119.807V40.3174C624.85 30.6574 627.99 22.8174 634.27 16.8174C640.55 10.8074 648.59 7.80737 658.4 7.80737ZM628.58 63.5174H723.22V93.3374H628.58V63.5174Z" fill="white"/>
<path d="M811.02 6.97742C824.27 6.97742 834.83 8.04742 842.7 10.1874C850.57 12.3274 856.23 16.0874 859.68 21.4774C863.13 26.8574 864.86 34.4574 864.86 44.2574C864.86 54.0574 862.86 62.2374 858.85 67.5574C854.84 72.8774 848.15 75.9474 838.76 76.7774V78.0174C850.22 78.9874 858.23 82.6774 862.78 89.0974C867.34 95.5174 869.61 104.457 869.61 115.917C869.61 125.717 867.78 133.317 864.12 138.697C860.46 144.077 854.83 147.847 847.24 149.987C839.65 152.127 829.84 153.197 817.83 153.197C807.61 153.197 798.6 153.157 790.8 153.097C783 153.027 775.82 152.857 769.26 152.577C762.7 152.297 756.04 151.957 749.28 151.537L752.59 122.127C756.18 122.267 763.15 122.407 773.51 122.537C783.86 122.677 795.94 122.747 809.75 122.747C813.89 122.747 817.07 122.337 819.28 121.507C821.49 120.677 822.97 119.097 823.73 116.747C824.49 114.397 824.87 111.087 824.87 106.807C824.87 102.527 824.46 99.0074 823.63 96.6574C822.8 94.3074 821.32 92.7174 819.18 91.8974C817.04 91.0674 813.83 90.6574 809.55 90.6574H752.39V64.3574H809.13C812.58 64.3574 815.24 64.0174 817.1 63.3174C818.96 62.6274 820.24 61.2774 820.93 59.2774C821.62 57.2774 821.97 54.4074 821.97 50.6874C821.97 46.9674 821.62 44.1674 820.93 42.2974C820.24 40.4374 818.93 39.1574 817 38.4674C815.06 37.7774 812.31 37.4274 808.72 37.4274C800.02 37.4274 792.43 37.3974 785.94 37.3274C779.45 37.2574 773.58 37.2574 768.34 37.3274C763.09 37.3974 757.85 37.6374 752.6 38.0474L749.29 8.63742C755.5 8.08742 761.58 7.70742 767.51 7.49742C773.44 7.28742 779.9 7.15742 786.87 7.07742C793.84 7.00742 801.88 6.97742 811 6.97742H811.02ZM793.21 8.63742V151.527H749.31V8.63742H793.21Z" fill="white"/>
<path d="M1011.48 8.63745V92.5075C1011.48 107.697 1009.51 119.807 1005.58 128.847C1001.65 137.887 995.23 144.417 986.32 148.417C977.41 152.417 965.51 154.427 950.6 154.427C934.45 154.427 921.57 152.427 911.98 148.417C902.38 144.417 895.48 137.887 891.27 128.847C887.06 119.807 884.95 107.687 884.95 92.5075V8.63745H929.89V92.5075C929.89 100.097 930.41 105.967 931.44 110.107C932.48 114.247 934.34 117.117 937.03 118.697C939.72 120.287 943.48 121.077 948.32 121.077C953.16 121.077 956.88 120.287 959.5 118.697C962.12 117.107 963.95 114.247 964.99 110.107C966.03 105.967 966.54 100.097 966.54 92.5075V8.63745H1011.48Z" fill="white"/>
<path d="M1076.5 8.63745V108.457C1076.5 110.667 1077.29 112.467 1078.88 113.837C1080.47 115.217 1082.57 115.907 1085.2 115.907H1133.24L1135.31 149.457C1124.68 150.837 1113.32 151.667 1101.24 151.947C1089.16 152.227 1077.25 152.357 1065.52 152.357C1055.17 152.357 1046.91 149.357 1040.77 143.347C1034.63 137.337 1031.55 129.507 1031.55 119.847V8.63745H1076.49H1076.5Z" fill="white"/>
<path d="M1227.67 8.63745C1231.26 8.63745 1234.43 9.67745 1237.2 11.7475C1239.96 13.8175 1241.82 16.6475 1242.79 20.2375L1279.86 151.527H1234.09L1212.55 58.5475C1212 55.9275 1211.51 53.1974 1211.1 50.3675C1210.69 47.5375 1210.34 44.8074 1210.06 42.1875H1204.47C1204.19 44.8074 1203.85 47.5375 1203.43 50.3675C1203.02 53.1974 1202.53 55.9275 1201.98 58.5475L1180.44 151.527H1134.67L1171.74 20.2375C1172.7 16.6475 1174.57 13.8175 1177.33 11.7475C1180.09 9.67745 1183.26 8.63745 1186.86 8.63745H1227.66H1227.67ZM1245.28 89.1974V120.677H1169.28V89.1974H1245.28Z" fill="white"/>
<path d="M626.44 186.007V229.387H464.96V186.007H626.44ZM574.76 186.007V370.787H516.65V186.007H574.76Z" fill="white"/>
<path d="M721.5 183.327C739.71 183.327 754.53 185.027 765.95 188.417C777.37 191.807 785.81 197.567 791.26 205.687C796.7 213.817 799.43 225.107 799.43 239.567C799.43 246.887 798.31 253.717 796.08 260.057C793.85 266.397 790.01 271.617 784.56 275.727C779.11 279.837 771.57 282.417 761.93 283.497V285.107C765.32 285.467 769.07 286.487 773.18 288.187C777.28 289.887 781.12 292.737 784.7 296.757C788.27 300.777 790.77 306.527 792.2 314.027L806.66 370.797H745.87L733.82 315.897C732.75 310.717 731.1 307.327 728.87 305.717C726.64 304.107 723.02 303.307 718.02 303.307C704.63 303.127 693.69 303.037 685.22 303.037C676.75 303.037 669.55 302.947 663.66 302.767C657.77 302.587 651.88 302.327 645.99 301.967L646.79 262.337H720.16C725.69 262.337 729.98 261.797 733.01 260.727C736.04 259.657 738.14 257.737 739.3 254.967C740.46 252.197 741.04 248.317 741.04 243.317C741.04 238.317 740.46 234.217 739.3 231.537C738.14 228.857 736.04 226.987 733.01 225.917C729.97 224.847 725.69 224.307 720.16 224.307C701.59 224.307 685.97 224.397 673.3 224.577C660.62 224.757 651.96 225.117 647.32 225.647L643.04 186.017C651.25 185.127 658.97 184.507 666.2 184.147C673.43 183.787 681.37 183.567 690.03 183.477C698.69 183.387 709.18 183.347 721.5 183.347V183.327ZM700.08 186.007V370.787H643.04V186.007H700.08Z" fill="white"/>
<path d="M866.11 184.937C876.82 184.937 887.84 184.987 899.18 185.067C910.51 185.157 921.63 185.427 932.52 185.867C943.41 186.317 953.32 187.167 962.25 188.407L959.57 229.377H891.82C888.43 229.377 885.75 230.277 883.79 232.057C881.82 233.847 880.84 236.167 880.84 239.017V317.747C880.84 320.607 881.82 322.927 883.79 324.707C885.75 326.497 888.43 327.387 891.82 327.387H959.57L962.25 368.357C953.32 369.427 943.41 370.237 932.52 370.767C921.63 371.307 910.52 371.617 899.18 371.707C887.84 371.797 876.82 371.837 866.11 371.837C853.43 371.837 843.03 367.957 834.91 360.187C826.78 352.417 822.73 342.287 822.73 329.797V226.967C822.73 214.477 826.79 204.337 834.91 196.577C843.03 188.807 853.43 184.927 866.11 184.927V184.937ZM827.55 256.967H949.93V295.527H827.55V256.967Z" fill="white"/>
<path d="M1060.26 182.797C1069.9 182.797 1078.11 183.067 1084.9 183.597C1091.68 184.137 1097.89 184.897 1103.51 185.877C1109.13 186.857 1114.98 188.247 1121.05 190.027L1116.77 232.337C1110.52 232.157 1104.72 232.067 1099.36 232.067C1094 232.067 1088.29 232.027 1082.22 231.937C1076.15 231.847 1068.83 231.807 1060.26 231.807C1054.19 231.807 1049.5 233.107 1046.2 235.687C1042.89 238.277 1040.62 242.917 1039.37 249.607C1038.12 256.307 1037.49 265.897 1037.49 278.397C1037.49 290.897 1038.11 300.487 1039.37 307.187C1040.62 313.887 1042.89 318.527 1046.2 321.117C1049.5 323.707 1054.19 324.997 1060.26 324.997C1073.65 324.997 1084.85 324.867 1093.87 324.597C1102.88 324.327 1111.85 323.757 1120.78 322.857L1125.06 365.167C1115.78 368.377 1106.27 370.657 1096.54 371.997C1086.81 373.337 1074.71 374.007 1060.25 374.007C1039.9 374.007 1023.56 370.927 1011.24 364.767C998.92 358.607 990.04 348.567 984.59 334.637C979.14 320.707 976.42 301.967 976.42 278.397C976.42 254.827 979.14 236.087 984.59 222.157C990.03 208.237 998.92 198.187 1011.24 192.027C1023.56 185.867 1039.89 182.787 1060.25 182.787L1060.26 182.797Z" fill="white"/>
<path d="M1185.85 184.937C1196.56 184.937 1207.58 184.987 1218.92 185.067C1230.25 185.157 1241.37 185.427 1252.26 185.867C1263.15 186.317 1273.06 187.167 1281.99 188.407L1279.31 229.377H1211.56C1208.17 229.377 1205.49 230.277 1203.53 232.057C1201.56 233.847 1200.58 236.167 1200.58 239.017V317.747C1200.58 320.607 1201.56 322.927 1203.53 324.707C1205.49 326.497 1208.17 327.387 1211.56 327.387H1279.31L1281.99 368.357C1273.06 369.427 1263.15 370.237 1252.26 370.767C1241.37 371.307 1230.26 371.617 1218.92 371.707C1207.58 371.797 1196.56 371.837 1185.85 371.837C1173.17 371.837 1162.77 367.957 1154.65 360.187C1146.52 352.417 1142.47 342.287 1142.47 329.797V226.967C1142.47 214.477 1146.53 204.337 1154.65 196.577C1162.77 188.807 1173.17 184.927 1185.85 184.927V184.937ZM1147.29 256.967H1269.67V295.527H1147.29V256.967Z" fill="white"/>
<path d="M368.34 54.4374C368.34 25.5674 342.33 2.16738 310.25 2.16738C245.31 2.16738 170.14 -8.76262 109.14 18.4674C60.04 40.3874 22.11 83.8674 7.19 135.557C2.4 152.157 0 169.427 0 186.697C0 288.397 82.44 370.847 184.15 370.847C216.6 370.847 248.81 362.217 276.85 345.847C304.13 329.927 327.13 306.967 343.11 279.727C359.62 251.577 367.97 219.637 368.3 187.067C368.53 164.087 368.35 141.097 368.35 118.117V54.4374H368.34ZM229.86 105.467L226.09 104.697C224.55 104.387 224.55 102.177 226.09 101.867L229.86 101.097C240.12 99.0174 248.13 90.9974 250.21 80.7474L250.98 76.9774C251.29 75.4374 253.5 75.4374 253.81 76.9774L254.58 80.7474C256.66 91.0074 264.68 99.0174 274.93 101.097L278.7 101.867C280.24 102.177 280.24 104.387 278.7 104.697L274.93 105.467C264.67 107.547 256.66 115.567 254.58 125.817L253.81 129.587C253.5 131.127 251.29 131.127 250.98 129.587L250.21 125.817C248.13 115.557 240.11 107.547 229.86 105.467ZM235.08 166.997L212.67 172.987C203.66 175.397 196.62 182.437 194.21 191.447L188.22 213.857C187.78 215.507 185.43 215.507 184.99 213.857L179 191.447C176.59 182.437 169.55 175.397 160.54 172.987L138.13 166.997C136.48 166.557 136.48 164.207 138.13 163.767L160.54 157.777C169.55 155.367 176.59 148.327 179 139.317L184.99 116.907C185.43 115.257 187.78 115.257 188.22 116.907L194.21 139.317C196.62 148.327 203.66 155.367 212.67 157.777L235.08 163.767C236.73 164.207 236.73 166.557 235.08 166.997ZM331.36 167.517C324.33 191.817 310.42 213.997 291.53 230.867C250.64 266.637 195.18 279.527 140.99 281.837C196.43 317.857 270.77 306.977 320.52 253.567C303.55 305.067 250.45 340.147 196.97 342.587C162.57 344.597 127.65 334.427 99.5 314.597C18.46 257.597 8 139.867 79.93 71.0074C111.62 40.6274 157.53 24.9674 200.95 32.3874C214.56 34.6274 227.77 39.1074 239.69 45.7674C230.45 45.2474 221.66 45.1974 212.62 45.8974C173.09 48.9974 134.93 68.2874 111 99.6674C82.33 136.537 75.97 187.797 95.72 229.727C98.41 230.447 101.11 231.107 103.76 231.757C171.72 247.307 259.44 250.797 309.27 193.597C317.53 184.077 324.3 173.147 329.51 161.657C332.26 155.847 334.4 149.767 336.49 143.617C335.29 151.597 333.74 159.727 331.36 167.517Z" fill="white"/>
</svg>
