<svg width="328" height="328" viewBox="0 0 328 328" fill="none" xmlns="http://www.w3.org/2000/svg">
<path d="M163.66 0C73.28 0 0 73.27 0 163.66C0 254.05 73.27 327.32 163.66 327.32C254.05 327.32 327.32 254.05 327.32 163.66C327.32 73.27 254.04 0 163.66 0ZM222.37 69.5L223.05 66.15C223.33 64.78 225.29 64.78 225.57 66.15L226.25 69.5C228.1 78.61 235.22 85.74 244.34 87.59L247.69 88.27C249.06 88.55 249.06 90.51 247.69 90.79L244.34 91.47C235.23 93.32 228.1 100.44 226.25 109.56L225.57 112.91C225.29 114.28 223.33 114.28 223.05 112.91L222.37 109.56C220.52 100.45 213.4 93.32 204.28 91.47L200.93 90.79C199.56 90.51 199.56 88.55 200.93 88.27L204.28 87.59C213.39 85.74 220.52 78.62 222.37 69.5ZM208.93 146.15L189.02 151.47C181.01 153.61 174.75 159.87 172.61 167.88L167.29 187.79C166.9 189.26 164.81 189.26 164.42 187.79L159.1 167.88C156.96 159.87 150.7 153.61 142.69 151.47L122.78 146.15C121.31 145.76 121.31 143.67 122.78 143.28L142.69 137.96C150.7 135.82 156.96 129.56 159.1 121.55L164.42 101.64C164.81 100.17 166.9 100.17 167.29 101.64L172.61 121.55C174.75 129.56 181.01 135.82 189.02 137.96L208.93 143.28C210.4 143.67 210.4 145.76 208.93 146.15ZM284.85 223.09C269.76 268.86 222.58 300.04 175.05 302.2C144.48 303.98 113.44 294.95 88.43 277.32C16.41 226.67 7.11 122.04 71.03 60.84C99.2 33.84 140 19.93 178.58 26.52C190.67 28.51 202.41 32.5 213.01 38.41C204.79 37.95 196.99 37.9 188.95 38.53C153.81 41.29 119.9 58.43 98.64 86.32C73.16 119.09 67.5 164.64 85.06 201.91C87.45 202.55 89.85 203.14 92.21 203.71C152.61 217.53 230.57 220.63 274.85 169.79C282.19 161.33 288.21 151.61 292.84 141.41C295.28 136.25 297.19 130.84 299.04 125.38C297.98 132.47 296.6 139.7 294.48 146.62C288.24 168.21 275.87 187.92 259.08 202.92C222.74 234.71 173.45 246.16 125.29 248.22C174.56 280.23 240.63 270.57 284.84 223.1L284.85 223.09Z" fill="white"/>
</svg>
